{
  "accessors": [
    {
      "bufferView": 1,
      "componentType": 5126,
      "count": 2833,
      "max": [
        17.30900001525879,
        -0.0,
        2.680000066757202
      ],
      "min": [
        2.0,
        -24.83099937438965,
        -11.92199993133545
      ],
      "type": "VEC3"
    },
    {
      "bufferView": 1,
      "byteOffset": 33996,
      "componentType": 5126,
      "count": 2833,
      "max": [
        0.9998323917388916,
        1.0,
        0.999908447265625
      ],
      "min": [
        -0.9999266862869263,
        -0.9994865655899048,
        -0.9999299645423889
      ],
      "type": "VEC3"
    },
    {
      "bufferView": 0,
      "componentType": 5125,
      "count": 13455,
      "type": "SCALAR"
    },
    {
      "bufferView": 1,
      "byteOffset": 67992,
      "componentType": 5126,
      "count": 2494,
      "max": [
        14.904000282287598,
        -14.018500328063965,
        -8.848199844360352
      ],
      "min": [
        3.7160000801086426,
        -20.770000457763672,
        -13.0
      ],
      "type": "VEC3"
    },
    {
      "bufferView": 1,
      "byteOffset": 97920,
      "componentType": 5126,
      "count": 2494,
      "max": [
        0.9985496401786804,
        0.9992914795875549,
        0.9999926686286926
      ],
      "min": [
        -0.9975138306617737,
        -0.999517560005188,
        -0.999671220779419
      ],
      "type": "VEC3"
    },
    {
      "bufferView": 0,
      "byteOffset": 53820,
      "componentType": 5125,
      "count": 12921,
      "type": "SCALAR"
    }
  ],
  "asset": {
    "extras": {
      "author": "Not Cockatiel Slayer 稲妻の柱 (https://sketchfab.com/Not-Cockatiel-Slayer)",
      "license": "CC-BY-4.0 (http://creativecommons.org/licenses/by/4.0/)",
      "source": "https://sketchfab.com/3d-models/among-us-29688f6f5c1c473980204c76a4112f12",
      "title": "Among Us"
    },
    "generator": "Sketchfab-12.68.0",
    "version": "2.0"
  },
  "bufferViews": [
    {
      "buffer": 0,
      "byteLength": 105504,
      "name": "floatBufferViews",
      "target": 34963
    },
    {
      "buffer": 0,
      "byteLength": 127848,
      "byteOffset": 105504,
      "byteStride": 12,
      "name": "floatBufferViews",
      "target": 34962
    }
  ],
  "buffers": [
    {
      "byteLength": 233352,
      "uri": "scene.bin"
    }
  ],
  "materials": [
    {
      "doubleSided": true,
      "name": "color_16768282",
      "pbrMetallicRoughness": {
        "baseColorFactor": [
          1.0,
          0.7987257024116523,
          0.0,
          1.0
        ],
        "metallicFactor": 0.0
      }
    },
    {
      "doubleSided": true,
      "name": "color_7720667",
      "pbrMetallicRoughness": {
        "baseColorFactor": [
          0.458824,
          0.807843,
          0.858824,
          1.0
        ],
        "metallicFactor": 0.4453561071017673,
        "roughnessFactor": 0.0
      }
    }
  ],
  "meshes": [
    {
      "name": "Object_0",
      "primitives": [
        {
          "attributes": {
            "NORMAL": 1,
            "POSITION": 0
          },
          "indices": 2,
          "material": 0,
          "mode": 4
        }
      ]
    },
    {
      "name": "Object_1",
      "primitives": [
        {
          "attributes": {
            "NORMAL": 4,
            "POSITION": 3
          },
          "indices": 5,
          "material": 1,
          "mode": 4
        }
      ]
    }
  ],
  "nodes": [
    {
      "children": [
        1
      ],
      "matrix": [
        1.0,
        0.0,
        0.0,
        0.0,
        0.0,
        -0.9999908208847046,
        0.004277846310287492,
        0.0,
        0.0,
        -0.004277846310287492,
        -0.9999908208847046,
        0.0,
        0.0,
        -17.597454071044922,
        7.308648109436032,
        1.0
      ],
      "name": "Sketchfab_model"
    },
    {
      "children": [
        2,
        3
      ],
      "name": "tinker.obj.cleaner.materialmerger.gles"
    },
    {
      "mesh": 0,
      "name": "Object_2"
    },
    {
      "mesh": 1,
      "name": "Object_3"
    }
  ],
  "scene": 0,
  "scenes": [
    {
      "name": "Sketchfab_Scene",
      "nodes": [
        0
      ]
    }
  ]
}
